<svg width="583" height="192" viewBox="0 0 583 192" fill="none" xmlns="http://www.w3.org/2000/svg">
<path d="M31.4776 111.181H46.2623L68.1134 190.667H58.541L52.4267 168.716H24.9624L18.8481 190.667H9.17541L31.4776 111.181ZM27.1675 160.948H50.3719L39.6969 121.506C39.5298 120.971 39.3962 120.386 39.2959 119.751C39.2291 119.117 39.1957 118.532 39.1957 117.997L39.2458 116.343H38.3437L38.3938 117.997C38.3938 118.532 38.3437 119.117 38.2435 119.751C38.1432 120.386 38.0096 120.971 37.8425 121.506L27.1675 160.948ZM79.3342 165.458C79.3342 172.976 80.1194 178.071 81.6897 180.744C83.2601 183.417 86.7015 184.754 92.0139 184.754C97.5268 184.754 101.469 183.35 103.842 180.544C105.947 178.105 107.133 174.713 107.4 170.37V131.278H116.571V190.667H107.951V185.004C107.951 184.871 107.968 184.737 108.001 184.603C108.035 184.47 108.068 184.353 108.102 184.252L110.106 180.143L109.856 180.043C108.987 181.713 107.884 183.334 106.548 184.904C102.973 189.114 97.0758 191.219 88.8565 191.219C81.0048 191.219 75.9263 188.997 73.6209 184.553C71.3155 180.076 70.1628 173.828 70.1628 165.809V131.228H79.3342V165.458ZM146.365 190.667C141.052 190.667 137.394 189.732 135.389 187.861C133.418 185.99 132.432 182.482 132.432 177.336V138.144H122.208V131.278H124.764C126.101 131.278 127.32 131.045 128.423 130.577C129.559 130.076 130.528 129.407 131.329 128.572C132.165 127.703 132.8 126.684 133.234 125.515C133.702 124.346 133.936 123.059 133.936 121.656V111.131H143.107V121.656C143.107 123.159 142.907 124.462 142.506 125.565C142.105 126.634 141.553 127.536 140.852 128.271C140.183 129.006 139.415 129.574 138.546 129.975C137.678 130.343 136.776 130.577 135.84 130.677V131.278H162.452V138.144H141.654V175.131C141.654 178.539 142.255 180.761 143.458 181.797C144.694 182.832 146.615 183.35 149.221 183.35C152.562 183.35 156.99 183.334 162.502 183.3V190.667C156.188 190.667 150.808 190.667 146.365 190.667ZM193.196 191.119C184.242 191.119 177.743 189.014 173.701 184.804C169.658 180.56 167.636 172.558 167.636 160.798C167.636 149.07 169.658 141.118 173.701 136.942C177.743 132.765 184.242 130.677 193.196 130.677C202.184 130.677 208.682 132.765 212.692 136.942C216.735 141.118 218.756 149.07 218.756 160.798C218.756 172.558 216.735 180.56 212.692 184.804C208.682 189.014 202.184 191.119 193.196 191.119ZM193.246 184.754C199.227 184.754 203.437 183.417 205.876 180.744C208.348 178.038 209.585 171.406 209.585 160.848C209.585 150.29 208.348 143.691 205.876 141.051C203.437 138.378 199.227 137.042 193.246 137.042C187.266 137.042 183.039 138.378 180.567 141.051C178.094 143.691 176.858 150.29 176.858 160.848C176.858 171.406 178.094 178.038 180.567 180.744C183.039 183.417 187.266 184.754 193.246 184.754ZM275.375 190.918C266.187 190.918 259.572 189.231 255.529 185.856C251.486 182.448 249.465 175.048 249.465 163.654H258.786C258.786 172.709 260.173 178.272 262.946 180.343C265.719 182.415 269.829 183.451 275.275 183.451C280.688 183.451 284.814 182.632 287.654 180.995C290.494 179.358 291.914 175.866 291.914 170.52C291.914 164.439 290.26 160.463 286.952 158.592C283.678 156.688 278.8 155.351 272.318 154.583C264.266 153.28 258.452 151.292 254.877 148.619C251.302 145.946 249.515 140.968 249.515 133.684C249.515 124.262 251.62 118.164 255.83 115.391C260.039 112.585 266.505 111.181 275.225 111.181C284.179 111.181 290.711 112.852 294.821 116.193C298.964 119.501 301.035 126.785 301.035 138.044H291.714C291.714 128.856 290.277 123.326 287.403 121.455C284.564 119.584 280.487 118.649 275.175 118.649C269.762 118.649 265.619 119.384 262.746 120.854C259.906 122.291 258.486 126.183 258.486 132.531C258.486 138.144 260.206 141.803 263.648 143.507C267.123 145.211 271.917 146.447 278.032 147.216C286.384 148.519 292.298 150.557 295.773 153.33C299.281 156.07 301.035 161.332 301.035 169.117C301.035 177.57 298.981 183.317 294.871 186.357C290.795 189.398 284.296 190.918 275.375 190.918ZM332.515 191.119C323.56 191.119 317.062 189.014 313.019 184.804C308.976 180.56 306.955 172.558 306.955 160.798C306.955 149.07 308.976 141.118 313.019 136.942C317.062 132.765 323.56 130.677 332.515 130.677C341.502 130.677 348.001 132.765 352.01 136.942C356.053 141.118 358.074 149.07 358.074 160.798C358.074 172.558 356.053 180.56 352.01 184.804C348.001 189.014 341.502 191.119 332.515 191.119ZM332.565 184.754C338.545 184.754 342.755 183.417 345.194 180.744C347.667 178.038 348.903 171.406 348.903 160.848C348.903 150.29 347.667 143.691 345.194 141.051C342.755 138.378 338.545 137.042 332.565 137.042C326.584 137.042 322.357 138.378 319.885 141.051C317.413 143.691 316.176 150.29 316.176 160.848C316.176 171.406 317.413 178.038 319.885 180.744C322.357 183.417 326.584 184.754 332.565 184.754ZM372.836 138.144H362.06V131.278H375.993L376.043 130.727C375.809 130.694 375.525 130.593 375.191 130.426C374.723 130.426 374.089 130.293 373.287 130.025C372.518 129.725 371.75 129.24 370.981 128.572C370.246 127.904 369.611 127.002 369.077 125.866C368.542 124.696 368.275 123.243 368.275 121.506C368.275 117.63 369.478 114.94 371.883 113.437C374.289 111.933 377.931 111.181 382.809 111.181H400.35V117.997H383.761C379.15 117.997 376.845 120.069 376.845 124.212C376.845 124.279 376.862 125.381 376.895 127.52C376.929 129.658 379.418 130.911 384.363 131.278H400.45V138.144H382.007V190.667H372.836V138.144ZM426.959 190.667C421.647 190.667 417.988 189.732 415.983 187.861C414.012 185.99 413.027 182.482 413.027 177.336V138.144H402.803V131.278H405.359C406.695 131.278 407.915 131.045 409.017 130.577C410.153 130.076 411.122 129.407 411.924 128.572C412.759 127.703 413.394 126.684 413.828 125.515C414.296 124.346 414.53 123.059 414.53 121.656V111.131H423.702V121.656C423.702 123.159 423.501 124.462 423.1 125.565C422.699 126.634 422.148 127.536 421.446 128.271C420.778 129.006 420.01 129.574 419.141 129.975C418.272 130.343 417.37 130.577 416.435 130.677V131.278H443.047V138.144H422.248V175.131C422.248 178.539 422.85 180.761 424.052 181.797C425.289 182.832 427.21 183.35 429.816 183.35C433.157 183.35 437.584 183.334 443.097 183.3V190.667C436.782 190.667 431.403 190.667 426.959 190.667ZM472.947 133.329H491.795C496.658 133.329 500.088 134.713 502.086 137.482C504.108 140.25 505.119 145.546 505.119 153.369C505.119 161.24 504.108 166.548 502.086 169.292C500.088 172.036 496.658 173.408 491.795 173.408H477.641V190.667H472.947V133.329ZM490.64 169.4C494.275 169.4 496.814 168.498 498.258 166.692C499.703 164.863 500.425 160.422 500.425 153.369C500.425 146.364 499.703 141.947 498.258 140.117C496.814 138.288 494.275 137.373 490.64 137.373H477.641V169.4H490.64ZM535.867 163.298C535.867 158.845 535.314 155.668 534.206 153.766C533.099 151.84 530.644 150.877 526.841 150.877C522.869 150.877 520.052 151.937 518.392 154.055C516.923 155.932 516.117 158.219 515.972 160.915V190.667H511.315V147.447H515.972V151.708C515.972 151.804 515.972 151.9 515.972 151.997C515.972 152.093 515.96 152.189 515.936 152.286L515.142 154.271L515.322 154.994L515.467 154.885C516.02 153.561 516.791 152.346 517.778 151.238C519.992 148.759 523.567 147.519 528.502 147.519C533.484 147.519 536.734 148.867 538.25 151.563C539.791 154.235 540.561 158.147 540.561 163.298H535.867ZM561.709 190.992C555.427 190.992 550.973 189.512 548.35 186.551C545.75 183.59 544.45 177.801 544.45 169.184C544.45 160.566 545.75 154.789 548.35 151.852C550.973 148.916 555.427 147.447 561.709 147.447C567.968 147.447 572.397 148.916 574.997 151.852C577.621 154.789 578.932 160.566 578.932 169.184C578.932 177.801 577.621 183.59 574.997 186.551C572.397 189.512 567.968 190.992 561.709 190.992ZM561.709 187.671C566.403 187.671 569.665 186.587 571.494 184.421C573.324 182.255 574.239 177.187 574.239 169.22C574.239 161.228 573.324 156.161 571.494 154.019C569.665 151.852 566.403 150.769 561.709 150.769C556.991 150.769 553.718 151.852 551.888 154.019C550.059 156.161 549.144 161.228 549.144 169.22C549.144 177.187 550.059 182.255 551.888 184.421C553.718 186.587 556.991 187.671 561.709 187.671Z" fill="white"/>
<path fill-rule="evenodd" clip-rule="evenodd" d="M21.4434 37.9657H21.4465L21.4469 37.9658L21.4434 37.9657ZM311.559 11.9916C314.889 12.9668 318.016 14.077 320.914 15.3302C362.606 33.3577 370.042 49.0355 370.042 49.0355C379.007 48.4865 399.463 49.127 399.463 49.127C399.463 49.127 371.45 28.2538 329.759 10.2263C288.067 -7.80129 198.625 0.222105 142.975 17.1486C70.3736 39.2323 21.9212 37.9787 21.4469 37.9658L21.4588 37.9687H21.4588C21.4837 37.9746 21.5369 37.9873 21.6183 38.006C21.5187 37.9838 21.4613 37.9701 21.4463 37.9664C21.4827 37.9844 21.5188 38.0025 21.5549 38.0205C21.6604 38.0732 21.7651 38.1254 21.8715 38.176C44.7454 49.2753 72.7365 49.6207 123.899 32.1274C175.385 14.525 240.761 8.24322 284.696 10.4483C328.629 12.6534 370.038 49.0392 370.038 49.0392C370.038 49.0392 362.6 33.3643 320.911 15.3338C318.014 14.0812 314.888 12.9697 311.559 11.9916ZM144.941 40.5809L144.861 40.5495V40.5525L144.941 40.5809ZM144.941 40.5809C166.152 48.1329 235.268 58.6082 317.469 55.2089C405.83 51.5544 482.294 53.6769 534.096 67.9407C582.162 81.1743 577.268 108.751 576.874 110.632C576.78 110.032 576.662 109.406 576.515 108.757C576.661 109.403 576.779 110.026 576.872 110.623C576.859 110.688 576.85 110.723 576.85 110.723C576.81 110.679 576.769 110.635 576.727 110.591C576.686 110.546 576.645 110.502 576.605 110.458C539.887 70.9371 446.452 63.8082 324.533 65.5734C308.079 65.8096 292.731 65.5026 278.484 64.7882C268.472 64.2867 259.009 63.5869 250.091 62.7354L249.918 62.7275C191.174 57.1086 156.14 44.9881 144.941 40.5809Z" fill="#ED192D"/>
<path opacity="0.3" d="M360.846 49.5379C360.846 49.5379 324.134 16.1012 278.806 12.9928C227.252 9.45637 138.412 30.8698 131.97 33.4616C131.97 33.4616 190.568 52.8382 263.811 51.4242C337.053 50.0102 360.846 49.5379 360.846 49.5379Z" fill="url(#paint0_linear_18_53)"/>
<path fill-rule="evenodd" clip-rule="evenodd" d="M0.61649 74.0447L0.505981 73.852H0.509052C0.509052 73.852 2.71627 74.1002 16.7454 70.1463C30.7746 66.1924 37.2703 38.8828 37.2703 38.8828C46.0747 79.2859 12.9252 78.5526 12.7188 78.5477C12.8128 78.664 17.1359 84.0081 22.5099 90.2177L21.9605 106.168C13.7217 95.9809 1.53861 75.641 0.617132 74.045L0.61649 74.0447Z" fill="#ED192D"/>
<defs>
<linearGradient id="paint0_linear_18_53" x1="246.408" y1="16.3167" x2="246.408" y2="51.1763" gradientUnits="userSpaceOnUse">
<stop/>
<stop offset="0.55" stop-color="#C7C7C7"/>
<stop offset="0.56" stop-color="#676767"/>
<stop offset="0.57"/>
<stop offset="0.94" stop-opacity="0.3"/>
</linearGradient>
</defs>
</svg>
